<mxfile host="app.diagrams.net" modified="2023-03-26T22:44:03.949Z" agent="Mozilla/5.0 (Windows NT 10.0; Win64; x64) AppleWebKit/537.36 (KHTML, like Gecko) Chrome/109.0.0.0 Safari/537.36 Edg/109.0.1518.55" version="21.1.1" etag="4zCyjkcXfrsGBos7DzEN" type="github">
  <diagram name="Page-1" id="zNS_hCkVsCROr77-5lkT">
    <mxGraphModel>
      <root>
        <mxCell id="0" />
        <mxCell id="1" parent="0" />
      </root>
    </mxGraphModel>
  </diagram>
</mxfile>
